<svg width="207" height="60" viewBox="0 0 207 60" fill="none" xmlns="http://www.w3.org/2000/svg">
<g clip-path="url(#clip0_6496_48140)">
<path d="M99.8473 41.1069H93.8359C93.3206 41.1069 92.9771 40.9924 92.7481 40.7634C92.5191 40.5344 92.4046 40.1909 92.4046 39.6756V13.626C92.4046 13.1107 92.5191 12.7672 92.7481 12.5382C92.9771 12.3092 93.3206 12.1947 93.8359 12.1947H100.305C100.706 12.1947 101.107 12.3092 101.393 12.481C101.679 12.6527 101.908 12.9962 102.195 13.397L105.802 19.9237C105.916 20.1527 106.031 20.3245 106.145 20.439C106.26 20.5535 106.374 20.6107 106.546 20.6107H106.889C107.061 20.6107 107.176 20.5535 107.29 20.439C107.405 20.3245 107.519 20.1527 107.634 19.9237L111.183 13.397C111.412 12.9962 111.698 12.6527 111.985 12.481C112.271 12.3092 112.614 12.1947 113.073 12.1947H119.599C120.114 12.1947 120.458 12.3092 120.687 12.5382C120.916 12.7672 121.031 13.1107 121.031 13.626V39.6756C121.031 40.1909 120.916 40.5344 120.687 40.7634C120.458 40.9924 120.114 41.1069 119.599 41.1069H113.416C112.901 41.1069 112.557 40.9924 112.328 40.7634C112.099 40.5344 111.985 40.1909 111.985 39.6756V25.5344L109.637 29.9428C109.408 30.4008 109.122 30.7443 108.779 30.9161C108.435 31.1451 108.034 31.2023 107.519 31.2023H105.916C105.401 31.2023 105 31.0878 104.656 30.9161C104.313 30.6871 104.027 30.4008 103.798 29.9428L101.45 25.5344V39.6756C101.45 40.1909 101.336 40.5344 101.107 40.7634C100.706 40.9924 100.305 41.1069 99.8473 41.1069Z" fill="white"/>
<path d="M134.714 39.6756C134.714 40.1909 134.599 40.5344 134.37 40.7634C134.141 40.9924 133.798 41.1069 133.282 41.1069H127.385C126.87 41.1069 126.527 40.9924 126.298 40.7634C126.069 40.5344 125.954 40.1909 125.954 39.6756V29.084C125.954 28.2825 126.069 27.3665 126.355 26.3359C126.584 25.3054 126.985 24.0458 127.557 22.6718L131.05 13.5687C131.221 13.1107 131.45 12.7672 131.794 12.5382C132.137 12.3092 132.538 12.1947 133.111 12.1947H143.931C144.447 12.1947 144.847 12.3092 145.191 12.5382C145.534 12.7672 145.763 13.1107 145.935 13.5687L149.427 22.6718C149.943 24.0458 150.344 25.3054 150.63 26.3359C150.859 27.3665 151.031 28.2825 151.031 29.084V39.6756C151.031 40.1909 150.916 40.5344 150.687 40.7634C150.458 40.9924 150.114 41.1069 149.599 41.1069H143.531C143.015 41.1069 142.615 40.9924 142.328 40.7634C142.099 40.5344 141.927 40.1909 141.927 39.6756V34.0649H134.828V39.6756H134.714ZM137.004 20.6107L135.114 26.7367H141.412L139.523 20.6107C139.408 20.3817 139.294 20.21 139.179 20.0955C139.065 19.981 138.893 19.9237 138.779 19.9237H137.748C137.576 19.9237 137.462 19.981 137.347 20.0955C137.233 20.21 137.118 20.3817 137.004 20.6107Z" fill="white"/>
<path d="M163.511 41.1069H157.328C156.813 41.1069 156.469 40.9924 156.24 40.7634C156.011 40.5344 155.897 40.1909 155.897 39.6756V13.626C155.897 13.1107 156.011 12.7672 156.24 12.5382C156.469 12.3092 156.813 12.1947 157.328 12.1947H170.725C173.702 12.1947 175.821 12.8245 176.908 14.084C178.053 15.3436 178.626 16.9466 178.626 18.9504V20.7825C178.626 21.9275 178.454 22.8436 178.111 23.6451C177.767 24.4466 177.195 25.0191 176.336 25.3626C177.767 25.5344 178.969 26.1069 179.828 27.1375C180.744 28.168 181.202 29.4848 181.202 31.2023V39.7329C181.202 40.2481 181.088 40.5917 180.859 40.8207C180.63 41.0497 180.286 41.1642 179.771 41.1642H173.531C173.015 41.1642 172.672 41.0497 172.443 40.8207C172.214 40.5917 172.099 40.2481 172.099 39.7329V33.5497C172.099 32.9771 171.985 32.5191 171.756 32.2329C171.527 31.9466 171.126 31.8321 170.553 31.8321H164.943V39.7329C164.943 40.2481 164.828 40.5917 164.599 40.8207C164.37 40.9924 164.027 41.1069 163.511 41.1069ZM164.943 19.4084V24.5611H167.977C168.664 24.5611 169.122 24.3894 169.408 24.0458C169.637 23.7023 169.752 23.2443 169.752 22.6718V21.2978C169.752 20.7825 169.637 20.3245 169.408 19.9237C169.179 19.5802 168.721 19.4084 167.977 19.4084H164.943Z" fill="white"/>
<path d="M198.206 41.1069H191.679C191.164 41.1069 190.821 40.9924 190.592 40.7634C190.363 40.5344 190.248 40.1909 190.248 39.6756V19.9237H184.351C183.836 19.9237 183.492 19.8092 183.263 19.5802C183.034 19.3512 182.92 19.0077 182.92 18.4924V13.626C182.92 13.1107 183.034 12.7672 183.263 12.5382C183.492 12.3092 183.836 12.1947 184.351 12.1947H205.534C206.05 12.1947 206.393 12.3092 206.622 12.5382C206.851 12.7672 206.966 13.1107 206.966 13.626V18.4924C206.966 19.0077 206.851 19.3512 206.622 19.5802C206.393 19.8092 206.05 19.9237 205.534 19.9237H199.637V39.6756C199.637 40.1909 199.523 40.5344 199.294 40.7634C199.065 40.9924 198.664 41.1069 198.206 41.1069Z" fill="white"/>
<path d="M24.2748 18.1489L26.5649 12.1947H1.4313C0.916031 12.1947 0.572519 12.3092 0.343511 12.5382C0.114504 12.7672 0 13.1107 0 13.626V18.4924C0 19.0077 0.114504 19.3512 0.343511 19.5802C0.572519 19.8092 0.916031 19.9237 1.4313 19.9237H7.32824V39.6756C7.32824 40.1909 7.44275 40.5344 7.67176 40.7634C7.90076 40.9924 8.24428 41.1069 8.75954 41.1069H15.2863C15.8015 41.1069 16.145 40.9924 16.374 40.7634C16.6031 40.5344 16.7176 40.1909 16.7176 39.6756V19.9237H23.5878C23.8168 19.3512 24.0458 18.7787 24.2748 18.1489Z" fill="#F9A41A"/>
<path d="M65.4962 18.1489L63.2061 12.1947H88.3397C88.855 12.1947 89.1985 12.3092 89.4275 12.5382C89.6565 12.7672 89.771 13.1107 89.771 13.626V18.4924C89.771 19.0077 89.6565 19.3512 89.4275 19.5802C89.1985 19.8092 88.855 19.9237 88.3397 19.9237H82.4428V39.6756C82.4428 40.1909 82.3282 40.5344 82.0992 40.7634C81.8702 40.9924 81.5267 41.1069 81.0115 41.1069H74.4847C73.9695 41.1069 73.626 40.9924 73.397 40.7634C73.1679 40.5344 73.0534 40.1909 73.0534 39.6756V19.9237H66.1832C65.9542 19.3512 65.7252 18.7787 65.4962 18.1489Z" fill="#F9A41A"/>
<path d="M64.4657 22.729C64.0649 21.0687 63.4351 19.0649 62.5764 16.8321L56.9084 2.11832C56.6222 1.37405 56.2214 0.858779 55.7061 0.515267C55.1336 0.171756 54.5038 0 53.6451 0H36.2405C35.3817 0 34.6947 0.171756 34.1222 0.515267C33.6069 0.858779 33.2061 1.37405 32.9199 2.11832L27.3092 16.8321C26.4504 19.0649 25.8206 21.0687 25.4199 22.729C25.0191 24.3893 24.7901 25.8779 24.7901 27.1947V44.313C24.7901 45.1145 24.9619 45.7443 25.3626 46.0878C25.7061 46.4313 26.3359 46.6603 27.1374 46.6603H32.0611H36.6412H39.4466V28.626C34.5229 25.5916 32.9771 18.9504 36.4122 14.0267C36.6985 13.5687 37.042 13.2252 37.3855 12.8244C37.7863 12.3664 38.3015 12.1947 38.8741 12.4237C39.3893 12.5954 39.6756 13.0534 39.6756 13.7405C39.6756 15.6298 39.6756 17.5763 39.6756 19.4656C39.6756 19.6374 39.6183 19.7519 39.6183 19.8664C43.168 19.8664 46.6031 19.8664 50.0382 19.8664C50.0382 19.7519 50.0382 19.6374 50.0382 19.4656C50.0382 17.5191 50.0382 15.6298 50.0382 13.6832C50.0382 13.1107 50.3244 12.6527 50.8397 12.4237C51.355 12.1947 51.8703 12.3092 52.271 12.7672C52.6145 13.1107 52.958 13.5114 53.2443 13.9122C55.8206 17.5763 55.8779 22.1565 53.3588 25.8206C52.4428 27.1374 51.355 28.1107 49.9809 28.855V46.6603H52.9008H56.1641H62.6909C63.4924 46.6603 64.1222 46.4885 64.4657 46.0878C64.8092 45.7443 65.0382 45.1145 65.0382 44.313V27.1947C65.0382 25.9351 64.8664 24.4466 64.4657 22.729Z" fill="#F9A41A"/>
<path d="M165.172 59.7137H161.393C161.164 59.7137 160.992 59.6564 160.878 59.5419C160.763 59.4274 160.706 59.2557 160.706 59.0267V55.2481C160.706 55.019 160.763 54.8473 160.878 54.7328C160.992 54.6183 161.164 54.561 161.393 54.561H165.172C165.401 54.561 165.573 54.6183 165.687 54.7328C165.802 54.8473 165.859 55.019 165.859 55.2481V59.0267C165.859 59.2557 165.802 59.4274 165.687 59.5419C165.573 59.6564 165.401 59.7137 165.172 59.7137Z" fill="#F9A41A"/>
<path d="M177.137 59.7137H172.557C171.011 59.7137 169.809 59.4275 169.065 58.7977C168.321 58.1679 167.92 57.1946 167.92 55.9351V50.0954C167.92 48.7786 168.321 47.8053 169.065 47.1756C169.809 46.5458 170.954 46.2023 172.557 46.2023H177.137C177.366 46.2023 177.538 46.2595 177.653 46.374C177.767 46.4885 177.824 46.6603 177.824 46.8893V49.1794C177.824 49.4084 177.767 49.5801 177.653 49.6946C177.538 49.8091 177.366 49.8664 177.137 49.8664H173.359C172.958 49.8664 172.672 49.9236 172.5 50.0954C172.328 50.2672 172.214 50.4962 172.214 50.7824V55.2481C172.214 55.5343 172.328 55.7633 172.5 55.9351C172.672 56.1068 172.958 56.1641 173.359 56.1641H177.137C177.366 56.1641 177.538 56.2214 177.653 56.3359C177.767 56.4504 177.824 56.6221 177.824 56.8511V59.0839C177.824 59.313 177.767 59.4847 177.653 59.5992C177.595 59.6565 177.424 59.7137 177.137 59.7137Z" fill="#F9A41A"/>
<path d="M191.279 56.1641C191.279 56.7366 191.221 57.2519 191.05 57.7099C190.878 58.1679 190.592 58.5687 190.134 58.9122C189.676 59.2557 189.103 59.4847 188.359 59.7137C187.615 59.8855 186.641 60 185.496 60C184.351 60 183.378 59.8855 182.634 59.7137C181.889 59.542 181.26 59.2557 180.859 58.9122C180.401 58.5687 180.115 58.1679 179.943 57.7099C179.771 57.2519 179.714 56.7366 179.714 56.1641V49.8091C179.714 49.2366 179.771 48.7214 179.943 48.2633C180.115 47.8053 180.401 47.4046 180.859 47.061C181.317 46.7175 181.889 46.4885 182.634 46.2595C183.378 46.0878 184.351 45.9733 185.496 45.9733C186.641 45.9733 187.615 46.0878 188.359 46.2595C189.103 46.4313 189.733 46.7175 190.134 47.061C190.534 47.4046 190.878 47.8053 191.05 48.2633C191.221 48.7214 191.279 49.2366 191.279 49.8091V56.1641ZM183.893 55.5343C183.893 55.7633 184.008 55.9923 184.179 56.1641C184.351 56.3359 184.809 56.3931 185.496 56.3931C186.183 56.3931 186.584 56.3359 186.813 56.1641C186.985 55.9923 187.099 55.7633 187.099 55.5343V50.4962C187.099 50.2672 186.985 50.0381 186.813 49.8664C186.641 49.6946 186.183 49.6374 185.496 49.6374C184.809 49.6374 184.408 49.6946 184.179 49.8664C184.008 50.0381 183.893 50.2099 183.893 50.4962V55.5343Z" fill="#F9A41A"/>
<path d="M197.118 59.7137H194.313C194.084 59.7137 193.912 59.6565 193.798 59.542C193.683 59.4275 193.626 59.2557 193.626 59.0267V46.8893C193.626 46.6603 193.683 46.4885 193.798 46.374C193.912 46.2595 194.084 46.2023 194.313 46.2023H197.347C197.519 46.2023 197.691 46.2595 197.863 46.3168C198.034 46.374 198.092 46.5458 198.206 46.7748L199.866 49.8091C199.924 49.9236 199.981 49.9809 200.038 50.0382C200.095 50.0954 200.153 50.0954 200.21 50.0954H200.382C200.439 50.0954 200.496 50.0954 200.553 50.0382C200.611 49.9809 200.668 49.9236 200.725 49.8091L202.386 46.7748C202.5 46.603 202.615 46.4313 202.729 46.3168C202.844 46.2023 203.015 46.2023 203.244 46.2023H206.279C206.508 46.2023 206.679 46.2595 206.794 46.374C206.908 46.4885 206.966 46.6603 206.966 46.8893V59.0267C206.966 59.2557 206.908 59.4275 206.794 59.542C206.679 59.6565 206.508 59.7137 206.279 59.7137H203.416C203.187 59.7137 203.015 59.6565 202.901 59.542C202.786 59.4275 202.729 59.2557 202.729 59.0267V52.4427L201.641 54.5038C201.527 54.7328 201.412 54.8473 201.24 54.9618C201.069 55.0763 200.897 55.0763 200.668 55.0763H199.924C199.695 55.0763 199.466 55.0191 199.351 54.9618C199.179 54.8473 199.065 54.7328 198.95 54.5038L197.863 52.4427V59.0267C197.863 59.2557 197.805 59.4275 197.691 59.542C197.519 59.6565 197.347 59.7137 197.118 59.7137Z" fill="#F9A41A"/>
</g>
<defs>
<clipPath id="clip0_6496_48140">
<rect width="206.966" height="60" fill="white"/>
</clipPath>
</defs>
</svg>
